<mxfile host="app.diagrams.net" agent="Mozilla/5.0 (X11; Linux x86_64; rv:138.0) Gecko/20100101 Firefox/138.0" scale="1" border="0" version="27.1.0">
  <diagram name="Page-1" id="Urb4OLTs37qF4SLFsVl0">
    <mxGraphModel dx="2960" dy="1227" grid="1" gridSize="10" guides="1" tooltips="1" connect="1" arrows="1" fold="1" page="1" pageScale="1" pageWidth="850" pageHeight="1100" math="0" shadow="0">
      <root>
        <mxCell id="0" />
        <mxCell id="1" parent="0" />
        <mxCell id="6rAk2Mv3O25VEfxQnVJS-8" style="edgeStyle=orthogonalEdgeStyle;rounded=0;orthogonalLoop=1;jettySize=auto;html=1;exitX=0.5;exitY=1;exitDx=0;exitDy=0;entryX=0;entryY=0.5;entryDx=0;entryDy=0;" parent="1" source="6rAk2Mv3O25VEfxQnVJS-1" target="6rAk2Mv3O25VEfxQnVJS-4" edge="1">
          <mxGeometry relative="1" as="geometry" />
        </mxCell>
        <mxCell id="6rAk2Mv3O25VEfxQnVJS-9" value="Initializes" style="edgeLabel;html=1;align=center;verticalAlign=middle;resizable=0;points=[];" parent="6rAk2Mv3O25VEfxQnVJS-8" vertex="1" connectable="0">
          <mxGeometry x="0.3692" relative="1" as="geometry">
            <mxPoint as="offset" />
          </mxGeometry>
        </mxCell>
        <mxCell id="6rAk2Mv3O25VEfxQnVJS-1" value="App" style="rounded=1;whiteSpace=wrap;html=1;" parent="1" vertex="1">
          <mxGeometry x="-240" y="150" width="120" height="60" as="geometry" />
        </mxCell>
        <mxCell id="6rAk2Mv3O25VEfxQnVJS-43" style="edgeStyle=orthogonalEdgeStyle;rounded=0;orthogonalLoop=1;jettySize=auto;html=1;exitX=0;exitY=0.75;exitDx=0;exitDy=0;" parent="1" source="6rAk2Mv3O25VEfxQnVJS-4" target="6rAk2Mv3O25VEfxQnVJS-42" edge="1">
          <mxGeometry relative="1" as="geometry" />
        </mxCell>
        <mxCell id="6rAk2Mv3O25VEfxQnVJS-44" value="Reads" style="edgeLabel;html=1;align=center;verticalAlign=middle;resizable=0;points=[];" parent="6rAk2Mv3O25VEfxQnVJS-43" vertex="1" connectable="0">
          <mxGeometry x="0.3333" y="1" relative="1" as="geometry">
            <mxPoint as="offset" />
          </mxGeometry>
        </mxCell>
        <mxCell id="6rAk2Mv3O25VEfxQnVJS-59" style="edgeStyle=orthogonalEdgeStyle;rounded=0;orthogonalLoop=1;jettySize=auto;html=1;entryX=0;entryY=0.5;entryDx=0;entryDy=0;startArrow=none;startFill=0;endArrow=classic;endFill=1;" parent="1" source="6rAk2Mv3O25VEfxQnVJS-4" target="ZbZVJ5gWv5duSCXArYDt-5" edge="1">
          <mxGeometry relative="1" as="geometry">
            <Array as="points">
              <mxPoint x="-20" y="580" />
            </Array>
            <mxPoint x="140" y="510" as="targetPoint" />
          </mxGeometry>
        </mxCell>
        <mxCell id="ZbZVJ5gWv5duSCXArYDt-9" value="Configures" style="edgeLabel;html=1;align=center;verticalAlign=middle;resizable=0;points=[];" parent="6rAk2Mv3O25VEfxQnVJS-59" vertex="1" connectable="0">
          <mxGeometry x="-0.158" y="4" relative="1" as="geometry">
            <mxPoint as="offset" />
          </mxGeometry>
        </mxCell>
        <mxCell id="6rAk2Mv3O25VEfxQnVJS-70" style="edgeStyle=orthogonalEdgeStyle;rounded=0;orthogonalLoop=1;jettySize=auto;html=1;entryX=0.001;entryY=0.58;entryDx=0;entryDy=0;entryPerimeter=0;endArrow=classic;startFill=0;endFill=1;" parent="1" source="6rAk2Mv3O25VEfxQnVJS-4" target="6rAk2Mv3O25VEfxQnVJS-72" edge="1">
          <mxGeometry relative="1" as="geometry">
            <mxPoint x="60" y="740" as="targetPoint" />
            <Array as="points">
              <mxPoint x="-20" y="370" />
              <mxPoint x="-110" y="370" />
              <mxPoint x="-110" y="1257" />
            </Array>
          </mxGeometry>
        </mxCell>
        <mxCell id="6rAk2Mv3O25VEfxQnVJS-71" value="Configures" style="edgeLabel;html=1;align=center;verticalAlign=middle;resizable=0;points=[];" parent="6rAk2Mv3O25VEfxQnVJS-70" vertex="1" connectable="0">
          <mxGeometry x="0.7485" relative="1" as="geometry">
            <mxPoint as="offset" />
          </mxGeometry>
        </mxCell>
        <mxCell id="ZbZVJ5gWv5duSCXArYDt-10" style="edgeStyle=orthogonalEdgeStyle;rounded=0;orthogonalLoop=1;jettySize=auto;html=1;startArrow=none;startFill=0;endArrow=classic;endFill=1;" parent="1" source="6rAk2Mv3O25VEfxQnVJS-4" edge="1">
          <mxGeometry relative="1" as="geometry">
            <mxPoint x="750" y="290" as="targetPoint" />
            <Array as="points">
              <mxPoint x="-20" y="120" />
              <mxPoint x="750" y="120" />
              <mxPoint x="750" y="290" />
            </Array>
          </mxGeometry>
        </mxCell>
        <mxCell id="ZbZVJ5gWv5duSCXArYDt-14" value="Configurs" style="edgeLabel;html=1;align=center;verticalAlign=middle;resizable=0;points=[];" parent="ZbZVJ5gWv5duSCXArYDt-10" vertex="1" connectable="0">
          <mxGeometry x="-0.627" y="1" relative="1" as="geometry">
            <mxPoint as="offset" />
          </mxGeometry>
        </mxCell>
        <mxCell id="6rAk2Mv3O25VEfxQnVJS-4" value="&lt;div&gt;ServerConfig&lt;/div&gt;" style="rounded=1;whiteSpace=wrap;html=1;" parent="1" vertex="1">
          <mxGeometry x="-80" y="240" width="120" height="60" as="geometry" />
        </mxCell>
        <mxCell id="6rAk2Mv3O25VEfxQnVJS-42" value="&lt;div&gt;Environment&lt;/div&gt;&lt;div&gt;variables&lt;/div&gt;" style="ellipse;whiteSpace=wrap;html=1;fillColor=#dae8fc;strokeColor=#6c8ebf;" parent="1" vertex="1">
          <mxGeometry x="-400" y="284" width="120" height="60" as="geometry" />
        </mxCell>
        <mxCell id="6rAk2Mv3O25VEfxQnVJS-63" value="RTI Standard Java interface" style="swimlane;whiteSpace=wrap;html=1;fillColor=#dae8fc;strokeColor=#6c8ebf;" parent="1" vertex="1">
          <mxGeometry x="370" y="1130" width="570" height="240" as="geometry" />
        </mxCell>
        <mxCell id="6rAk2Mv3O25VEfxQnVJS-68" style="edgeStyle=orthogonalEdgeStyle;rounded=0;orthogonalLoop=1;jettySize=auto;html=1;entryX=0;entryY=0.5;entryDx=0;entryDy=0;" parent="6rAk2Mv3O25VEfxQnVJS-63" source="6rAk2Mv3O25VEfxQnVJS-64" target="6rAk2Mv3O25VEfxQnVJS-67" edge="1">
          <mxGeometry relative="1" as="geometry" />
        </mxCell>
        <mxCell id="6rAk2Mv3O25VEfxQnVJS-64" value="RtiFactoryFactory" style="rounded=1;whiteSpace=wrap;html=1;" parent="6rAk2Mv3O25VEfxQnVJS-63" vertex="1">
          <mxGeometry x="30" y="50" width="120" height="60" as="geometry" />
        </mxCell>
        <mxCell id="6rAk2Mv3O25VEfxQnVJS-73" style="edgeStyle=orthogonalEdgeStyle;rounded=0;orthogonalLoop=1;jettySize=auto;html=1;" parent="6rAk2Mv3O25VEfxQnVJS-63" source="6rAk2Mv3O25VEfxQnVJS-65" target="6rAk2Mv3O25VEfxQnVJS-66" edge="1">
          <mxGeometry relative="1" as="geometry" />
        </mxCell>
        <mxCell id="6rAk2Mv3O25VEfxQnVJS-65" value="RtiFactory" style="rounded=1;whiteSpace=wrap;html=1;" parent="6rAk2Mv3O25VEfxQnVJS-63" vertex="1">
          <mxGeometry x="220" y="50" width="120" height="60" as="geometry" />
        </mxCell>
        <mxCell id="6rAk2Mv3O25VEfxQnVJS-66" value="RtiAmbassador" style="rounded=1;whiteSpace=wrap;html=1;" parent="6rAk2Mv3O25VEfxQnVJS-63" vertex="1">
          <mxGeometry x="380" y="50" width="120" height="60" as="geometry" />
        </mxCell>
        <mxCell id="6rAk2Mv3O25VEfxQnVJS-69" style="edgeStyle=orthogonalEdgeStyle;rounded=0;orthogonalLoop=1;jettySize=auto;html=1;" parent="6rAk2Mv3O25VEfxQnVJS-63" source="6rAk2Mv3O25VEfxQnVJS-67" target="6rAk2Mv3O25VEfxQnVJS-65" edge="1">
          <mxGeometry relative="1" as="geometry">
            <Array as="points">
              <mxPoint x="260" y="150" />
            </Array>
          </mxGeometry>
        </mxCell>
        <mxCell id="6rAk2Mv3O25VEfxQnVJS-67" value="ServiceLoader" style="rounded=1;whiteSpace=wrap;html=1;" parent="6rAk2Mv3O25VEfxQnVJS-63" vertex="1">
          <mxGeometry x="120" y="120" width="120" height="60" as="geometry" />
        </mxCell>
        <mxCell id="6rAk2Mv3O25VEfxQnVJS-72" value="" style="swimlane;startSize=0;" parent="6rAk2Mv3O25VEfxQnVJS-63" vertex="1">
          <mxGeometry x="20" y="40" width="330" height="150" as="geometry" />
        </mxCell>
        <mxCell id="6rAk2Mv3O25VEfxQnVJS-74" style="edgeStyle=orthogonalEdgeStyle;rounded=0;orthogonalLoop=1;jettySize=auto;html=1;" parent="1" source="6rAk2Mv3O25VEfxQnVJS-39" target="6rAk2Mv3O25VEfxQnVJS-66" edge="1">
          <mxGeometry relative="1" as="geometry">
            <Array as="points">
              <mxPoint x="810" y="1090" />
              <mxPoint x="810" y="1090" />
            </Array>
          </mxGeometry>
        </mxCell>
        <mxCell id="6rAk2Mv3O25VEfxQnVJS-75" value="Forwards" style="edgeLabel;html=1;align=center;verticalAlign=middle;resizable=0;points=[];" parent="6rAk2Mv3O25VEfxQnVJS-74" vertex="1" connectable="0">
          <mxGeometry x="-0.04" relative="1" as="geometry">
            <mxPoint as="offset" />
          </mxGeometry>
        </mxCell>
        <mxCell id="6rAk2Mv3O25VEfxQnVJS-13" style="edgeStyle=orthogonalEdgeStyle;rounded=0;orthogonalLoop=1;jettySize=auto;html=1;dashed=1;startArrow=classic;startFill=1;" parent="1" source="6rAk2Mv3O25VEfxQnVJS-11" target="6rAk2Mv3O25VEfxQnVJS-12" edge="1">
          <mxGeometry relative="1" as="geometry" />
        </mxCell>
        <mxCell id="6rAk2Mv3O25VEfxQnVJS-30" value="(bytes)" style="edgeLabel;html=1;align=center;verticalAlign=middle;resizable=0;points=[];" parent="6rAk2Mv3O25VEfxQnVJS-13" vertex="1" connectable="0">
          <mxGeometry x="-0.35" y="3" relative="1" as="geometry">
            <mxPoint x="-3" y="11" as="offset" />
          </mxGeometry>
        </mxCell>
        <mxCell id="6rAk2Mv3O25VEfxQnVJS-28" style="edgeStyle=orthogonalEdgeStyle;rounded=0;orthogonalLoop=1;jettySize=auto;html=1;exitX=1;exitY=0.5;exitDx=0;exitDy=0;" parent="1" source="6rAk2Mv3O25VEfxQnVJS-14" target="6rAk2Mv3O25VEfxQnVJS-17" edge="1">
          <mxGeometry relative="1" as="geometry">
            <Array as="points">
              <mxPoint x="880" y="470" />
              <mxPoint x="630" y="470" />
              <mxPoint x="630" y="360" />
            </Array>
          </mxGeometry>
        </mxCell>
        <mxCell id="6rAk2Mv3O25VEfxQnVJS-29" value="Lookup" style="edgeLabel;html=1;align=center;verticalAlign=middle;resizable=0;points=[];" parent="6rAk2Mv3O25VEfxQnVJS-28" vertex="1" connectable="0">
          <mxGeometry x="-0.3333" y="2" relative="1" as="geometry">
            <mxPoint x="-123" y="-112" as="offset" />
          </mxGeometry>
        </mxCell>
        <mxCell id="6rAk2Mv3O25VEfxQnVJS-11" value="Incoming Messages" style="ellipse;whiteSpace=wrap;html=1;fillColor=#dae8fc;strokeColor=#6c8ebf;" parent="1" vertex="1">
          <mxGeometry x="760" y="180" width="120" height="60" as="geometry" />
        </mxCell>
        <mxCell id="ZbZVJ5gWv5duSCXArYDt-1" value="Session Layer Handling" style="swimlane;whiteSpace=wrap;html=1;" parent="1" vertex="1">
          <mxGeometry x="70" y="170" width="570" height="600" as="geometry" />
        </mxCell>
        <mxCell id="6rAk2Mv3O25VEfxQnVJS-55" style="edgeStyle=orthogonalEdgeStyle;rounded=0;orthogonalLoop=1;jettySize=auto;html=1;" parent="ZbZVJ5gWv5duSCXArYDt-1" source="6rAk2Mv3O25VEfxQnVJS-35" target="6rAk2Mv3O25VEfxQnVJS-52" edge="1">
          <mxGeometry relative="1" as="geometry" />
        </mxCell>
        <mxCell id="6rAk2Mv3O25VEfxQnVJS-35" value="&lt;div&gt;SessionManager&lt;/div&gt;" style="rounded=1;whiteSpace=wrap;html=1;" parent="ZbZVJ5gWv5duSCXArYDt-1" vertex="1">
          <mxGeometry x="270" y="380" width="120" height="60" as="geometry" />
        </mxCell>
        <mxCell id="6rAk2Mv3O25VEfxQnVJS-54" style="edgeStyle=orthogonalEdgeStyle;rounded=0;orthogonalLoop=1;jettySize=auto;html=1;" parent="ZbZVJ5gWv5duSCXArYDt-1" source="6rAk2Mv3O25VEfxQnVJS-52" target="6rAk2Mv3O25VEfxQnVJS-53" edge="1">
          <mxGeometry relative="1" as="geometry" />
        </mxCell>
        <mxCell id="ZbZVJ5gWv5duSCXArYDt-15" value="Contains" style="edgeLabel;html=1;align=center;verticalAlign=middle;resizable=0;points=[];" parent="6rAk2Mv3O25VEfxQnVJS-54" vertex="1" connectable="0">
          <mxGeometry x="-0.1357" y="-5" relative="1" as="geometry">
            <mxPoint x="-9" y="5" as="offset" />
          </mxGeometry>
        </mxCell>
        <mxCell id="6rAk2Mv3O25VEfxQnVJS-52" value="Session" style="rounded=1;whiteSpace=wrap;html=1;" parent="ZbZVJ5gWv5duSCXArYDt-1" vertex="1">
          <mxGeometry x="270" y="480" width="120" height="60" as="geometry" />
        </mxCell>
        <mxCell id="6rAk2Mv3O25VEfxQnVJS-60" style="edgeStyle=orthogonalEdgeStyle;rounded=0;orthogonalLoop=1;jettySize=auto;html=1;entryX=0;entryY=0.5;entryDx=0;entryDy=0;" parent="ZbZVJ5gWv5duSCXArYDt-1" target="6rAk2Mv3O25VEfxQnVJS-35" edge="1">
          <mxGeometry relative="1" as="geometry">
            <mxPoint x="170" y="410" as="sourcePoint" />
          </mxGeometry>
        </mxCell>
        <mxCell id="ZbZVJ5gWv5duSCXArYDt-6" value="" style="edgeStyle=orthogonalEdgeStyle;rounded=0;orthogonalLoop=1;jettySize=auto;html=1;exitX=1;exitY=0.5;exitDx=0;exitDy=0;" parent="ZbZVJ5gWv5duSCXArYDt-1" source="ZbZVJ5gWv5duSCXArYDt-5" target="6rAk2Mv3O25VEfxQnVJS-35" edge="1">
          <mxGeometry relative="1" as="geometry" />
        </mxCell>
        <mxCell id="ZbZVJ5gWv5duSCXArYDt-7" value="Trigger Cleanup" style="edgeLabel;html=1;align=center;verticalAlign=middle;resizable=0;points=[];" parent="ZbZVJ5gWv5duSCXArYDt-6" vertex="1" connectable="0">
          <mxGeometry x="0.0333" y="1" relative="1" as="geometry">
            <mxPoint as="offset" />
          </mxGeometry>
        </mxCell>
        <mxCell id="6rAk2Mv3O25VEfxQnVJS-16" value="FP (de)serialization" style="swimlane;whiteSpace=wrap;html=1;flipH=1;" parent="ZbZVJ5gWv5duSCXArYDt-1" vertex="1">
          <mxGeometry x="10" y="40" width="430" height="280" as="geometry" />
        </mxCell>
        <mxCell id="6rAk2Mv3O25VEfxQnVJS-27" style="edgeStyle=orthogonalEdgeStyle;rounded=0;orthogonalLoop=1;jettySize=auto;html=1;exitX=1;exitY=0.5;exitDx=0;exitDy=0;" parent="6rAk2Mv3O25VEfxQnVJS-16" source="6rAk2Mv3O25VEfxQnVJS-17" edge="1">
          <mxGeometry relative="1" as="geometry">
            <mxPoint x="140" y="150" as="targetPoint" />
            <Array as="points">
              <mxPoint x="140" y="150" />
            </Array>
          </mxGeometry>
        </mxCell>
        <mxCell id="6rAk2Mv3O25VEfxQnVJS-17" value="PacketTypeRegistry" style="rounded=1;whiteSpace=wrap;html=1;" parent="6rAk2Mv3O25VEfxQnVJS-16" vertex="1">
          <mxGeometry x="160" y="120" width="120" height="60" as="geometry" />
        </mxCell>
        <mxCell id="6rAk2Mv3O25VEfxQnVJS-19" value="Heartbeat" style="rounded=1;whiteSpace=wrap;html=1;" parent="6rAk2Mv3O25VEfxQnVJS-16" vertex="1">
          <mxGeometry x="10" y="40" width="120" height="30" as="geometry" />
        </mxCell>
        <mxCell id="6rAk2Mv3O25VEfxQnVJS-20" value="HeartbeatResponse" style="rounded=1;whiteSpace=wrap;html=1;" parent="6rAk2Mv3O25VEfxQnVJS-16" vertex="1">
          <mxGeometry x="10" y="80" width="120" height="30" as="geometry" />
        </mxCell>
        <mxCell id="6rAk2Mv3O25VEfxQnVJS-21" value="NewSession" style="rounded=1;whiteSpace=wrap;html=1;" parent="6rAk2Mv3O25VEfxQnVJS-16" vertex="1">
          <mxGeometry x="10" y="120" width="120" height="30" as="geometry" />
        </mxCell>
        <mxCell id="6rAk2Mv3O25VEfxQnVJS-22" value="NewSessionResponse" style="rounded=1;whiteSpace=wrap;html=1;" parent="6rAk2Mv3O25VEfxQnVJS-16" vertex="1">
          <mxGeometry x="10" y="160" width="120" height="30" as="geometry" />
        </mxCell>
        <mxCell id="6rAk2Mv3O25VEfxQnVJS-24" value="CallRequest" style="rounded=1;whiteSpace=wrap;html=1;" parent="6rAk2Mv3O25VEfxQnVJS-16" vertex="1">
          <mxGeometry x="10" y="200" width="120" height="30" as="geometry" />
        </mxCell>
        <mxCell id="6rAk2Mv3O25VEfxQnVJS-25" value="etc" style="rounded=1;whiteSpace=wrap;html=1;dashed=1;dashPattern=8 8;" parent="6rAk2Mv3O25VEfxQnVJS-16" vertex="1">
          <mxGeometry x="10" y="240" width="120" height="30" as="geometry" />
        </mxCell>
        <mxCell id="6rAk2Mv3O25VEfxQnVJS-26" value="" style="endArrow=none;html=1;rounded=0;" parent="6rAk2Mv3O25VEfxQnVJS-16" edge="1">
          <mxGeometry width="50" height="50" relative="1" as="geometry">
            <mxPoint x="140" y="255" as="sourcePoint" />
            <mxPoint x="140" y="45" as="targetPoint" />
          </mxGeometry>
        </mxCell>
        <mxCell id="ZbZVJ5gWv5duSCXArYDt-4" value="Session Management" style="swimlane;whiteSpace=wrap;html=1;" parent="ZbZVJ5gWv5duSCXArYDt-1" vertex="1">
          <mxGeometry x="10" y="340" width="430" height="230" as="geometry" />
        </mxCell>
        <mxCell id="ZbZVJ5gWv5duSCXArYDt-5" value="Periodic timer" style="rounded=1;whiteSpace=wrap;html=1;fillColor=#dae8fc;strokeColor=#6c8ebf;" parent="ZbZVJ5gWv5duSCXArYDt-4" vertex="1">
          <mxGeometry x="20" y="40" width="120" height="60" as="geometry" />
        </mxCell>
        <mxCell id="6rAk2Mv3O25VEfxQnVJS-53" value="Unique, cryptographically random id" style="ellipse;whiteSpace=wrap;html=1;" parent="ZbZVJ5gWv5duSCXArYDt-4" vertex="1">
          <mxGeometry x="20" y="140" width="120" height="60" as="geometry" />
        </mxCell>
        <mxCell id="ZbZVJ5gWv5duSCXArYDt-3" value="HLA Layer Handling" style="swimlane;whiteSpace=wrap;html=1;" parent="1" vertex="1">
          <mxGeometry x="70" y="800" width="570" height="280" as="geometry" />
        </mxCell>
        <mxCell id="6rAk2Mv3O25VEfxQnVJS-36" style="edgeStyle=orthogonalEdgeStyle;rounded=0;orthogonalLoop=1;jettySize=auto;html=1;entryX=1;entryY=0.5;entryDx=0;entryDy=0;" parent="1" source="6rAk2Mv3O25VEfxQnVJS-32" target="6rAk2Mv3O25VEfxQnVJS-35" edge="1">
          <mxGeometry relative="1" as="geometry">
            <Array as="points">
              <mxPoint x="630" y="630" />
              <mxPoint x="630" y="580" />
            </Array>
          </mxGeometry>
        </mxCell>
        <mxCell id="6rAk2Mv3O25VEfxQnVJS-38" value="&lt;div&gt;Creating sessions,&lt;/div&gt;&lt;div&gt;reconnecting to&lt;/div&gt;&lt;div&gt;existing ones&lt;/div&gt;" style="edgeLabel;html=1;align=center;verticalAlign=middle;resizable=0;points=[];" parent="6rAk2Mv3O25VEfxQnVJS-36" vertex="1" connectable="0">
          <mxGeometry x="0.0444" y="3" relative="1" as="geometry">
            <mxPoint x="-57" y="-3" as="offset" />
          </mxGeometry>
        </mxCell>
        <mxCell id="ZbZVJ5gWv5duSCXArYDt-8" value="Netty Pipeline" style="swimlane;horizontal=0;whiteSpace=wrap;html=1;" parent="1" vertex="1">
          <mxGeometry x="710" y="290" width="200" height="550" as="geometry" />
        </mxCell>
        <mxCell id="6rAk2Mv3O25VEfxQnVJS-12" value="FpHeaderCodec" style="rounded=1;whiteSpace=wrap;html=1;" parent="ZbZVJ5gWv5duSCXArYDt-8" vertex="1">
          <mxGeometry x="50" y="30" width="120" height="60" as="geometry" />
        </mxCell>
        <mxCell id="6rAk2Mv3O25VEfxQnVJS-14" value="FpPayloadCodec" style="rounded=1;whiteSpace=wrap;html=1;" parent="ZbZVJ5gWv5duSCXArYDt-8" vertex="1">
          <mxGeometry x="50" y="170" width="120" height="60" as="geometry" />
        </mxCell>
        <mxCell id="6rAk2Mv3O25VEfxQnVJS-15" style="edgeStyle=orthogonalEdgeStyle;rounded=0;orthogonalLoop=1;jettySize=auto;html=1;exitX=0.5;exitY=1;exitDx=0;exitDy=0;entryX=0.5;entryY=0;entryDx=0;entryDy=0;dashed=1;startArrow=classic;startFill=1;" parent="ZbZVJ5gWv5duSCXArYDt-8" source="6rAk2Mv3O25VEfxQnVJS-12" target="6rAk2Mv3O25VEfxQnVJS-14" edge="1">
          <mxGeometry relative="1" as="geometry" />
        </mxCell>
        <mxCell id="6rAk2Mv3O25VEfxQnVJS-31" value="(header, bytes)" style="edgeLabel;html=1;align=center;verticalAlign=middle;resizable=0;points=[];" parent="6rAk2Mv3O25VEfxQnVJS-15" vertex="1" connectable="0">
          <mxGeometry x="-0.05" y="1" relative="1" as="geometry">
            <mxPoint x="-1" as="offset" />
          </mxGeometry>
        </mxCell>
        <mxCell id="6rAk2Mv3O25VEfxQnVJS-32" value="FpSessionLayer" style="rounded=1;whiteSpace=wrap;html=1;" parent="ZbZVJ5gWv5duSCXArYDt-8" vertex="1">
          <mxGeometry x="50" y="310" width="120" height="60" as="geometry" />
        </mxCell>
        <mxCell id="6rAk2Mv3O25VEfxQnVJS-33" style="edgeStyle=orthogonalEdgeStyle;rounded=0;orthogonalLoop=1;jettySize=auto;html=1;dashed=1;entryX=0.5;entryY=0;entryDx=0;entryDy=0;startArrow=classic;startFill=1;exitX=0.5;exitY=1;exitDx=0;exitDy=0;" parent="ZbZVJ5gWv5duSCXArYDt-8" source="6rAk2Mv3O25VEfxQnVJS-14" target="6rAk2Mv3O25VEfxQnVJS-32" edge="1">
          <mxGeometry relative="1" as="geometry">
            <mxPoint x="160" y="280" as="sourcePoint" />
            <mxPoint x="99.51999999999998" y="300" as="targetPoint" />
          </mxGeometry>
        </mxCell>
        <mxCell id="6rAk2Mv3O25VEfxQnVJS-34" value="(header, payload)" style="edgeLabel;html=1;align=center;verticalAlign=middle;resizable=0;points=[];" parent="6rAk2Mv3O25VEfxQnVJS-33" vertex="1" connectable="0">
          <mxGeometry x="0.24" y="2" relative="1" as="geometry">
            <mxPoint x="-2" y="-10" as="offset" />
          </mxGeometry>
        </mxCell>
        <mxCell id="6rAk2Mv3O25VEfxQnVJS-39" value="HlaForwardingLayer" style="rounded=1;whiteSpace=wrap;html=1;" parent="ZbZVJ5gWv5duSCXArYDt-8" vertex="1">
          <mxGeometry x="50" y="450" width="120" height="60" as="geometry" />
        </mxCell>
        <mxCell id="6rAk2Mv3O25VEfxQnVJS-40" style="edgeStyle=orthogonalEdgeStyle;rounded=0;orthogonalLoop=1;jettySize=auto;html=1;dashed=1;startArrow=classic;startFill=1;" parent="ZbZVJ5gWv5duSCXArYDt-8" source="6rAk2Mv3O25VEfxQnVJS-32" target="6rAk2Mv3O25VEfxQnVJS-39" edge="1">
          <mxGeometry relative="1" as="geometry" />
        </mxCell>
        <mxCell id="6rAk2Mv3O25VEfxQnVJS-41" value="(payload (hla messages only))" style="edgeLabel;html=1;align=center;verticalAlign=middle;resizable=0;points=[];" parent="6rAk2Mv3O25VEfxQnVJS-40" vertex="1" connectable="0">
          <mxGeometry x="0.44" y="2" relative="1" as="geometry">
            <mxPoint x="-2" y="-17" as="offset" />
          </mxGeometry>
        </mxCell>
      </root>
    </mxGraphModel>
  </diagram>
</mxfile>
